<svg xmlns="http://www.w3.org/2000/svg" width="19.829" height="20.099" viewBox="0 0 19.829 20.099"><defs><style>.a{fill:#f9feff;}</style></defs><path class="a" d="M19.829,21.881v7.776h-4.25V22.4c0-1.823-.615-3.067-2.153-3.067a2.344,2.344,0,0,0-2.181,1.649,3.259,3.259,0,0,0-.141,1.1v7.574H6.853s.057-12.288,0-13.562H11.1v1.922c-.009.014-.02.03-.028.044H11.1v-.044a4.19,4.19,0,0,1,3.831-2.241C17.732,15.777,19.829,17.715,19.829,21.881ZM2.406,9.558A2.278,2.278,0,0,0,0,11.9a2.265,2.265,0,0,0,2.349,2.344h.028a2.278,2.278,0,0,0,2.4-2.344A2.269,2.269,0,0,0,2.406,9.558ZM.252,29.657H4.5V16.1H.252Z" transform="translate(0 -9.558)"/></svg>