<svg xmlns="http://www.w3.org/2000/svg" width="80.966" height="80.933" viewBox="0 0 80.966 80.933"><defs><style>.a{fill:#fff;}</style></defs><path class="a" d="M86.354,57.793H78.519V53.875A3.918,3.918,0,0,0,74.6,49.957H61.542a3.9,3.9,0,0,0-2.85,1.247L44.565,48.85V45.586a13.059,13.059,0,0,0,6.53-11.3H52.4a3.918,3.918,0,0,0,0-7.835h-.627l.715-1.66a10.547,10.547,0,0,0-5.312-13.777L43.53,9.353A13.39,13.39,0,0,0,30.171,10.8l-2.06,1.544h0a8.183,8.183,0,0,0-4.93,3.688,8.1,8.1,0,0,0-.3,7.822l1.306,2.594h-.516a3.918,3.918,0,0,0,0,7.835h1.306a13.059,13.059,0,0,0,6.53,11.293v3.265L15.638,51.488A9.114,9.114,0,0,0,8,60.512V87.828a1.306,1.306,0,0,0,1.306,1.306H86.354a2.612,2.612,0,0,0,2.612-2.612V60.4A2.612,2.612,0,0,0,86.354,57.793ZM75.907,53.875v3.918h-8.27a9.141,9.141,0,0,0-4.229-5.224H74.6A1.306,1.306,0,0,1,75.907,53.875Zm-15.671.255a6.53,6.53,0,0,1,4.61,3.663h-4.61Zm-6.53-23.761A1.306,1.306,0,0,1,52.4,31.674H51.095V29.063H52.4A1.306,1.306,0,0,1,53.706,30.369ZM25.412,17.378a5.55,5.55,0,0,1,4.734-2.68,6.105,6.105,0,0,1,5.085,2.72l.41.615,2.174-1.448-.411-.615a8.7,8.7,0,0,0-4.918-3.557,10.728,10.728,0,0,1,9.967-.682l3.64,1.662a7.94,7.94,0,0,1,4,10.367l-.088.2-1.659-3.32a1.306,1.306,0,0,0-1.959-.462L44.3,21.748a10.447,10.447,0,0,1-12.537,0l-2.089-1.567a1.306,1.306,0,0,0-1.959.46l-1.756,3.542L25.208,22.7a5.5,5.5,0,0,1,.2-5.312Zm-1.742,14.3a1.306,1.306,0,0,1,0-2.612h1.306v2.612Zm3.918,2.612V26.759l1.773-3.549.839.628a13.059,13.059,0,0,0,15.671,0l.839-.628,1.773,3.549v7.527a10.447,10.447,0,1,1-20.894,0ZM38.036,47.345a13.007,13.007,0,0,0,3.918-.6v2.674l-3.918,3.918-3.918-3.918V46.743A13.007,13.007,0,0,0,38.036,47.345ZM37.614,61.71h.842l2.132,5.328L38.036,78.1,35.482,67.038Zm2.9-5.416-1.869,2.8H37.428l-1.871-2.8L36,54.988,37.112,56.1a1.306,1.306,0,0,0,1.848,0l1.117-1.118ZM23.671,86.522v-22.2H21.059v22.2H10.612V60.512a6.512,6.512,0,0,1,5.455-6.441l16.3-2.715,1.565,1.565-1.051,3.152a1.306,1.306,0,0,0,.152,1.143l2.23,3.341L32.9,66.444a1.306,1.306,0,0,0-.06.779L36.762,84.2a1.306,1.306,0,0,0,2.547,0l3.918-16.977a1.306,1.306,0,0,0-.06-.779l-2.356-5.886,2.231-3.346a1.306,1.306,0,0,0,.152-1.143l-1.051-3.152,1.565-1.565,13.937,2.321c0,.067-.02.129-.02.2v3.918H49.789A2.612,2.612,0,0,0,47.177,60.4V86.522Zm27.424,0H49.789V83.911H86.354v2.612ZM86.354,81.3H49.789V70.706a9.107,9.107,0,0,0,6.53,2.757h7.835v1.306a3.918,3.918,0,0,0,7.835,0V73.463h7.835a9.118,9.118,0,0,0,6.53-2.757Zm-19.589-6.53V68.24h2.612v6.53a1.306,1.306,0,0,1-2.612,0ZM86.354,64.322a6.53,6.53,0,0,1-6.53,6.53H71.989V66.934a1.306,1.306,0,0,0-1.306-1.306H65.46a1.306,1.306,0,0,0-1.306,1.306v3.918H56.318a6.53,6.53,0,0,1-6.53-6.53V60.4H86.354Z" transform="translate(-8 -8.201)"/></svg>