<svg xmlns="http://www.w3.org/2000/svg" width="80.933" height="80.933" viewBox="0 0 80.933 80.933"><defs><style>.a{fill:#fff;}</style></defs><g transform="translate(0 0.01)"><path class="a" d="M221.7,354.445a1.581,1.581,0,1,0,.463,1.121A1.581,1.581,0,0,0,221.7,354.445Z" transform="translate(-184.381 -298.037)"/><path class="a" d="M70.817,87.828a1.581,1.581,0,0,0-1.581,1.581v6.955H42.047v-3.9a11.811,11.811,0,0,0-10.338-11.7,8.22,8.22,0,0,0,1.84-5.191V64.445a1.581,1.581,0,0,0-1.581-1.581H23.7a6.672,6.672,0,0,0-6.664,6.664v6.037a8.22,8.22,0,0,0,1.842,5.191,11.811,11.811,0,0,0-10.34,11.7v3.909H3.161V58.385A1.231,1.231,0,0,1,4.4,57.161H37.253a1.581,1.581,0,1,0,0-3.161H4.4A4.4,4.4,0,0,0,0,58.385v46.869a4.4,4.4,0,0,0,4.4,4.388H28.453v7.3a7.926,7.926,0,0,0-7.113,7.874,1.581,1.581,0,0,0,1.581,1.581H49.477a1.581,1.581,0,0,0,1.581-1.581,7.926,7.926,0,0,0-7.113-7.874v-7.3H68a4.4,4.4,0,0,0,4.394-4.388V89.408A1.581,1.581,0,0,0,70.817,87.828ZM20.2,69.529a3.506,3.506,0,0,1,3.5-3.5h6.69v2.529a2.276,2.276,0,0,1-2.275,2.275H20.2Zm0,4.458h7.919a5.392,5.392,0,0,0,2.273-.5v2.082h0a5.1,5.1,0,1,1-10.193,0Zm6.941,9.838L25.292,85.67l-1.845-1.845ZM11.7,92.461a8.648,8.648,0,0,1,7.373-8.536l5.1,5.1a1.581,1.581,0,0,0,2.235,0l5.1-5.1a8.648,8.648,0,0,1,7.373,8.536v3.9H11.7Zm35.928,30.775H24.772a4.76,4.76,0,0,1,4.481-3.171H43.144a4.76,4.76,0,0,1,4.481,3.171ZM31.615,116.9v-7.26h9.168V116.9Zm37.621-11.648A1.231,1.231,0,0,1,68,106.479H4.4a1.231,1.231,0,0,1-1.235-1.225V99.525H69.236Z" transform="translate(0 -45.474)"/><path class="a" d="M440.7,230.8a1.581,1.581,0,1,0,.463,1.118A1.581,1.581,0,0,0,440.7,230.8Z" transform="translate(-368.763 -193.941)"/><path class="a" d="M376.436,47H364.581a1.581,1.581,0,0,0,0,3.161h11.855a1.581,1.581,0,0,0,0-3.161Z" transform="translate(-305.62 -39.581)"/><path class="a" d="M324.7,47.475a1.581,1.581,0,1,0,.463,1.116A1.581,1.581,0,0,0,324.7,47.475Z" transform="translate(-271.1 -39.591)"/><path class="a" d="M341.917,91H323.581a1.581,1.581,0,0,0,0,3.161h18.336a1.581,1.581,0,1,0,0-3.161Z" transform="translate(-271.101 -76.625)"/><path class="a" d="M341.917,135H323.581a1.581,1.581,0,0,0,0,3.161h18.336a1.581,1.581,0,1,0,0-3.161Z" transform="translate(-271.101 -113.67)"/><path class="a" d="M298.666,0H275.9A7.913,7.913,0,0,0,268,7.9V24.817a7.915,7.915,0,0,0,7.007,7.853v4.11a1.581,1.581,0,0,0,.977,1.459,1.549,1.549,0,0,0,.6.122,1.581,1.581,0,0,0,1.117-.463l5.176-5.177h15.785a7.913,7.913,0,0,0,7.9-7.9V7.9A7.913,7.913,0,0,0,298.666,0Zm4.742,24.817a4.742,4.742,0,0,1-4.742,4.742h-16.44a1.581,1.581,0,0,0-1.117.463l-2.94,2.94V31.14a1.581,1.581,0,0,0-1.581-1.581H275.9a4.742,4.742,0,0,1-4.742-4.742V7.9A4.742,4.742,0,0,1,275.9,3.161h22.763A4.742,4.742,0,0,1,303.408,7.9Z" transform="translate(-225.636 -0.01)"/></g></svg>