<svg xmlns="http://www.w3.org/2000/svg" xmlns:xlink="http://www.w3.org/1999/xlink" width="74.113" height="78.864" viewBox="0 0 74.113 78.864"><defs><style>.a{fill:url(#a);}.b{fill:url(#b);}.c{fill:url(#c);}.d{fill:url(#d);}.e{fill:url(#e);}.f{fill:url(#f);}.g{fill:url(#g);}.h{fill:url(#h);}.i{fill:url(#i);}.j{fill:url(#j);}.k{fill:url(#k);}.l{fill:url(#l);}.m{fill:url(#m);}</style><linearGradient id="a" x1="0.06" y1="0.645" x2="1.97" y2="0.027" gradientUnits="objectBoundingBox"><stop offset="0" stop-color="#fff"/><stop offset="0.76" stop-color="#ce9718"/></linearGradient><linearGradient id="b" x1="-0.775" y1="1.31" x2="0.907" y2="0.242" xlink:href="#a"/><linearGradient id="c" x1="-19.769" y1="10.971" x2="4.165" y2="-1.393" xlink:href="#a"/><linearGradient id="d" x1="-18.446" y1="12.529" x2="2.154" y2="-0.55" xlink:href="#a"/><linearGradient id="e" x1="-16.981" y1="14.148" x2="2.488" y2="-1.052" xlink:href="#a"/><linearGradient id="f" x1="-15.862" y1="10.892" x2="4.741" y2="-2.193" xlink:href="#a"/><linearGradient id="g" x1="-15.519" y1="8.78" x2="8.414" y2="-3.591" xlink:href="#a"/><linearGradient id="h" x1="-11.786" y1="8.303" x2="8.811" y2="-4.778" xlink:href="#a"/><linearGradient id="i" x1="-11.538" y1="9.899" x2="7.931" y2="-5.301" xlink:href="#a"/><linearGradient id="j" x1="-14.372" y1="9.945" x2="6.225" y2="-3.136" xlink:href="#a"/><linearGradient id="k" x1="-7.638" y1="3.855" x2="2.492" y2="-0.322" xlink:href="#a"/><linearGradient id="l" x1="-0.991" y1="1.053" x2="0.92" y2="0.436" xlink:href="#a"/><linearGradient id="m" x1="-0.468" y1="1.115" x2="0.809" y2="0.304" xlink:href="#a"/></defs><g transform="translate(-0.003)"><path class="a" d="M43.043,185.006a2.6,2.6,0,0,0-2.882-2.132l.667-14.851a3.606,3.606,0,0,0-6.862-1.7L30.955,172.7a2.167,2.167,0,0,1-3.851.117,20.9,20.9,0,0,1-1.127-17.767l2.38-6.039a4.721,4.721,0,0,0-1.536-5.454l-.057-.043a3.744,3.744,0,0,0-5.522,1.121,44.71,44.71,0,0,0-3.553,7.968,1.155,1.155,0,1,0,2.192.73,42.357,42.357,0,0,1,3.37-7.561,1.431,1.431,0,0,1,2.11-.43l.057.043a2.406,2.406,0,0,1,.784,2.772L23.821,154.2a23.2,23.2,0,0,0,1.248,19.724,4.477,4.477,0,0,0,7.972-.24l3.011-6.375a1.3,1.3,0,0,1,2.464.616l-.679,15.347-15.49,2.677a42.487,42.487,0,0,1-3.7-28.14,1.155,1.155,0,1,0-2.253-.485,44.792,44.792,0,0,0,3.484,28.836l.1.2a2.618,2.618,0,0,0-1.807,1.078,2.581,2.581,0,0,0-.437,1.939l1.274,7.369a3.456,3.456,0,0,0,4,2.817l18.5-3.2a3.456,3.456,0,0,0,2.819-3.985Zm-1.938,9.087-18.5,3.2a1.148,1.148,0,0,1-1.326-.935L20.01,188.99a.288.288,0,0,1,.234-.333l20.189-3.489a.269.269,0,0,1,.049,0,.288.288,0,0,1,.28.233l1.274,7.367a1.146,1.146,0,0,1-.932,1.325Z" transform="translate(-15.41 -120.757)"/><path class="b" d="M165.734,33.81a16.444,16.444,0,1,0,16.444,16.444A16.444,16.444,0,0,0,165.734,33.81Zm0,30.575a14.133,14.133,0,1,1,14.133-14.133A14.133,14.133,0,0,1,165.734,64.385Z" transform="translate(-128.667 -28.602)"/><path class="c" d="M249.705,63.76a1.155,1.155,0,0,0,1.155-1.155v-.53a1.155,1.155,0,0,0-2.31,0v.53A1.155,1.155,0,0,0,249.705,63.76Z" transform="translate(-212.638 -51.537)"/><path class="d" d="M297.852,82.391l-.373.374a1.155,1.155,0,1,0,1.633,1.634l.374-.374a1.156,1.156,0,0,0-1.634-1.634Z" transform="translate(-253.744 -69.415)"/><path class="e" d="M317.26,134.225a1.155,1.155,0,0,0,1.155,1.155h.53a1.155,1.155,0,1,0,0-2.31h-.53A1.155,1.155,0,0,0,317.26,134.225Z" transform="translate(-270.765 -112.574)"/><path class="f" d="M299.112,181.993a1.155,1.155,0,1,0-1.633,1.634l.373.373a1.155,1.155,0,1,0,1.634-1.633Z" transform="translate(-253.744 -153.676)"/><path class="g" d="M249.705,201.78a1.155,1.155,0,0,0-1.155,1.155v.528a1.155,1.155,0,0,0,2.31,0v-.528A1.155,1.155,0,0,0,249.705,201.78Z" transform="translate(-212.638 -170.701)"/><path class="h" d="M198.253,181.993l-.374.374A1.155,1.155,0,1,0,199.512,184l.374-.374a1.155,1.155,0,1,0-1.633-1.634Z" transform="translate(-169.485 -153.676)"/><path class="i" d="M178.1,133.07h-.53a1.155,1.155,0,0,0,0,2.31h.53a1.155,1.155,0,0,0,0-2.31Z" transform="translate(-151.61 -112.574)"/><path class="j" d="M198.253,84.4a1.155,1.155,0,1,0,1.633-1.634l-.374-.374a1.155,1.155,0,1,0-1.633,1.634Z" transform="translate(-169.485 -69.417)"/><path class="k" d="M252.863,99.595H250.87v-4.94a1.155,1.155,0,1,0-2.31,0v6.1a1.155,1.155,0,0,0,1.155,1.155h3.148a1.155,1.155,0,1,0,0-2.31Z" transform="translate(-212.647 -79.099)"/><path class="l" d="M333.064,186.305c.031-.154,11.016-20.163-1.266-41.741a3.743,3.743,0,0,0-5.52-1.115l-.055.043a4.719,4.719,0,0,0-1.531,5.462l2.38,6.039a20.9,20.9,0,0,1-1.127,17.771,2.166,2.166,0,0,1-3.851-.117l-3.011-6.374a3.606,3.606,0,0,0-6.862,1.7l.658,14.846a2.6,2.6,0,0,0-2.88,2.132l-1.278,7.372a3.455,3.455,0,0,0,2.817,3.994l5.74.992a1.155,1.155,0,1,0,.393-2.277l-5.739-.992a1.144,1.144,0,0,1-.935-1.325l1.274-7.367a.286.286,0,0,1,.333-.234l20.189,3.489a.286.286,0,0,1,.234.333l-1.274,7.367a1.144,1.144,0,0,1-1.325.935l-8.206-1.419a1.155,1.155,0,0,0-.394,2.276l8.208,1.419a3.456,3.456,0,0,0,4-2.817l1.272-7.367a2.585,2.585,0,0,0-.43-1.936,2.619,2.619,0,0,0-1.808-1.078Zm-17.773-19.68a1.286,1.286,0,0,1,1.694.632L320,173.63a4.477,4.477,0,0,0,7.974.24,23.207,23.207,0,0,0,1.248-19.724l-2.38-6.039a2.406,2.406,0,0,1,.784-2.772l.055-.043a1.432,1.432,0,0,1,2.113.431c11.955,21,.969,39.872.9,40.179l-15.487-2.682-.688-15.352A1.289,1.289,0,0,1,315.291,166.625Z" transform="translate(-263.496 -120.705)"/><path class="m" d="M158.791,21.651A21.486,21.486,0,0,0,154.712,9a1.155,1.155,0,1,0-1.87,1.351,19.356,19.356,0,1,1-2.934-3.235,1.155,1.155,0,0,0,1.522-1.728,21.648,21.648,0,1,0,7.361,16.26Z" transform="translate(-100.073 0)"/></g></svg>