<svg xmlns="http://www.w3.org/2000/svg" width="88.268" height="93.933" viewBox="0 0 88.268 93.933"><defs><style>.a{fill:#fff;}</style></defs><g transform="translate(-0.03 -0.001)"><path class="a" d="M101.879,51.479H98.21V40.561a6.535,6.535,0,0,0-5.275-6.4l3.051-3.047a5.574,5.574,0,0,0,0-7.889L74.374,1.63a5.59,5.59,0,0,0-7.889,0L34.049,34.041H21.964a6.529,6.529,0,0,0-6.524,6.52V87.414a6.529,6.529,0,0,0,6.524,6.52H91.68a6.529,6.529,0,0,0,6.524-6.52V76.505h3.669a1.835,1.835,0,0,0,1.835-1.835V53.313a1.835,1.835,0,0,0-1.835-1.835ZM69.079,4.22a1.915,1.915,0,0,1,2.7,0l21.612,21.6a1.9,1.9,0,0,1,0,2.7l-5.528,5.53h-6.43L83.775,31.7a1.835,1.835,0,0,0,0-2.6,2.739,2.739,0,0,1,0-3.873,1.835,1.835,0,0,0,0-2.6L74.968,13.83a1.835,1.835,0,0,0-2.594,0,2.752,2.752,0,0,1-3.88,0,1.835,1.835,0,0,0-2.592,0L45.671,34.041h-6.43ZM80.07,30.21l-3.827,3.825H50.863L67.375,17.523a6.445,6.445,0,0,0,6.1,0l6.594,6.588a6.421,6.421,0,0,0,0,6.093ZM19.1,87.414V40.561a2.857,2.857,0,0,1,2.86-2.851h4.825V90.265H21.964A2.857,2.857,0,0,1,19.1,87.414Zm75.436,0a2.857,2.857,0,0,1-2.86,2.851H30.453V37.71H91.68a2.857,2.857,0,0,1,2.855,2.851V51.479h-13.9a12.509,12.509,0,0,0,0,25.017H94.54Zm5.5-14.587H80.632a8.839,8.839,0,0,1,0-17.679h19.412Z" transform="translate(-15.41 0)"/><path class="a" d="M344.21,321.637a6.1,6.1,0,1,0,6.1-6.1A6.1,6.1,0,0,0,344.21,321.637Zm6.1-2.427a2.427,2.427,0,1,1-2.431,2.427A2.427,2.427,0,0,1,350.31,319.209Z" transform="translate(-283.863 -257.649)"/></g></svg>