<svg xmlns="http://www.w3.org/2000/svg" width="24.738" height="20.1" viewBox="0 0 24.738 20.1"><defs><style>.a{fill:#f9feff;}</style></defs><path class="a" d="M24.738,50.379a10.574,10.574,0,0,1-2.922.8,5.043,5.043,0,0,0,2.231-2.8A10.135,10.135,0,0,1,20.831,49.6a5.071,5.071,0,0,0-8.773,3.468,5.222,5.222,0,0,0,.118,1.157,14.355,14.355,0,0,1-10.453-5.3A5.073,5.073,0,0,0,3.281,55.7,5.008,5.008,0,0,1,.99,55.078v.056a5.1,5.1,0,0,0,4.063,4.983,5.062,5.062,0,0,1-1.33.167,4.484,4.484,0,0,1-.96-.087A5.12,5.12,0,0,0,7.5,63.73a10.19,10.19,0,0,1-6.288,2.163A9.5,9.5,0,0,1,0,65.824,14.278,14.278,0,0,0,7.78,68.1,14.335,14.335,0,0,0,22.215,53.668c0-.224-.008-.441-.019-.656A10.118,10.118,0,0,0,24.738,50.379Z" transform="translate(0 -48)"/></svg>